<?xml version="1.0" encoding="UTF-8" standalone="no"?>
<!DOCTYPE svg PUBLIC "-//W3C//DTD SVG 1.1//EN"
 "http://www.w3.org/Graphics/SVG/1.1/DTD/svg11.dtd">
<!-- Generated by graphviz version 2.42.4 (0)
 -->
<!-- Pages: 1 -->
<svg width="411pt" height="188pt"
 viewBox="0.00 0.00 411.18 188.00" xmlns="http://www.w3.org/2000/svg" xmlns:xlink="http://www.w3.org/1999/xlink">
<g id="graph0" class="graph" transform="scale(1 1) rotate(0) translate(4 184)">
<polygon fill="white" stroke="transparent" points="-4,4 -4,-184 407.18,-184 407.18,4 -4,4"/>
<!-- Sol -->
<g id="node1" class="node">
<title>Sol</title>
<ellipse fill="none" stroke="black" cx="193.94" cy="-162" rx="27" ry="18"/>
<text text-anchor="middle" x="193.94" y="-158.3" font-family="Times,serif" font-size="14.00">Sol</text>
</g>
<!-- Helados Vendidos -->
<g id="node2" class="node">
<title>Helados Vendidos</title>
<ellipse fill="none" stroke="black" cx="92.94" cy="-90" rx="92.88" ry="18"/>
<text text-anchor="middle" x="92.94" y="-86.3" font-family="Times,serif" font-size="14.00">Helados Vendidos</text>
</g>
<!-- Sol&#45;&gt;Helados Vendidos -->
<g id="edge1" class="edge">
<title>Sol&#45;&gt;Helados Vendidos</title>
<path fill="none" stroke="black" d="M175.88,-148.49C161.87,-138.77 142.08,-125.06 125.35,-113.46"/>
<polygon fill="black" stroke="black" points="127.13,-110.44 116.92,-107.62 123.14,-116.19 127.13,-110.44"/>
</g>
<!-- Gente en la Playa -->
<g id="node3" class="node">
<title>Gente en la Playa</title>
<ellipse fill="none" stroke="black" cx="295.94" cy="-90" rx="92.08" ry="18"/>
<text text-anchor="middle" x="295.94" y="-86.3" font-family="Times,serif" font-size="14.00">Gente en la Playa</text>
</g>
<!-- Sol&#45;&gt;Gente en la Playa -->
<g id="edge2" class="edge">
<title>Sol&#45;&gt;Gente en la Playa</title>
<path fill="none" stroke="black" d="M212.18,-148.49C226.33,-138.77 246.32,-125.06 263.22,-113.46"/>
<polygon fill="black" stroke="black" points="265.46,-116.16 271.73,-107.62 261.5,-110.39 265.46,-116.16"/>
</g>
<!-- Quemaduras Solares -->
<g id="node4" class="node">
<title>Quemaduras Solares</title>
<ellipse fill="none" stroke="black" cx="295.94" cy="-18" rx="107.48" ry="18"/>
<text text-anchor="middle" x="295.94" y="-14.3" font-family="Times,serif" font-size="14.00">Quemaduras Solares</text>
</g>
<!-- Gente en la Playa&#45;&gt;Quemaduras Solares -->
<g id="edge3" class="edge">
<title>Gente en la Playa&#45;&gt;Quemaduras Solares</title>
<path fill="none" stroke="black" d="M295.94,-71.7C295.94,-63.98 295.94,-54.71 295.94,-46.11"/>
<polygon fill="black" stroke="black" points="299.44,-46.1 295.94,-36.1 292.44,-46.1 299.44,-46.1"/>
</g>
</g>
</svg>
